<?xml version="1.0" encoding="UTF-8" standalone="no"?>
<!-- Created with Inkscape (http://www.inkscape.org/) -->

<svg
   width="196.21384mm"
   height="115.74241mm"
   viewBox="0 0 196.21384 115.74241"
   version="1.1"
   id="svg5"
   xml:space="preserve"
   xmlns:inkscape="http://www.inkscape.org/namespaces/inkscape"
   xmlns:sodipodi="http://sodipodi.sourceforge.net/DTD/sodipodi-0.dtd"
   xmlns="http://www.w3.org/2000/svg"
   xmlns:svg="http://www.w3.org/2000/svg"><sodipodi:namedview
     id="namedview7"
     pagecolor="#ffffff"
     bordercolor="#000000"
     borderopacity="0.25"
     inkscape:showpageshadow="2"
     inkscape:pageopacity="0.0"
     inkscape:pagecheckerboard="0"
     inkscape:deskcolor="#d1d1d1"
     inkscape:document-units="mm"
     showgrid="false" /><defs
     id="defs2" /><g
     inkscape:label="图层 1"
     inkscape:groupmode="layer"
     id="layer1"
     transform="translate(-7.392667,-70.398855)"><path
       style="fill:none;stroke:#484878;stroke-width:0.523;stroke-dasharray:none;stroke-opacity:1"
       d="M 7.6921694,180.49765 C 8.1517882,175.4758 26.719111,161.15502 32.020891,159.5678 c 8.277761,0.63758 16.285302,0.0592 23.613173,-3.57776 14.874835,-25.86871 32.827529,-50.09113 67.977316,-65.115106 25.58224,-10.978582 49.80294,-19.653003 69.22952,-20.214307 10.36039,0.763663 11.96043,5.096357 9.48105,11.091034 -7.11432,6.377875 -8.6541,14.564302 -18.97316,23.682619 -4.39061,3.87971 -10.10503,6.37274 -22.83819,16.16363 -9.2755,7.1322 -20.68578,11.92932 -32.42703,13.28339 -19.552,4.10496 -32.518446,1.68714 -66.009551,23.61317 -0.959436,4.00238 2.499397,7.42952 5.746109,10.96455 1.969131,7.64915 3.022644,15.69378 -0.558366,16.40526 -7.268347,-4.65079 -15.327981,-7.5315 -18.42543,-15.20545 -6.121923,1.95874 -9.369632,2.301 -15.40692,3.37251 -8.840786,1.56907 -19.288896,3.85721 -25.7372426,6.46631 z"
       id="path1140"
       sodipodi:nodetypes="ccccccsscccccsc" /><path
       style="fill:none;stroke:#484878;stroke-width:0.522999;stroke-dasharray:none;stroke-opacity:1"
       d="M 134.46172,100.30869 C 121.22736,90.413918 104.65402,91.225183 88.797862,89.17734 85.256067,89.13099 81.714271,87.014975 78.172476,85.382559 83.52029,73.525849 121.44986,75.231275 138.13001,85.635543"
       id="path5102"
       sodipodi:nodetypes="cccc" /><path
       style="fill:none;stroke:#484878;stroke-width:0.522999;stroke-dasharray:none;stroke-opacity:1"
       d="m 166.59086,116.87924 c 6.06331,19.41809 0.93686,35.91726 -5.56568,44.14594 0.58623,-12.27179 -2.20046,-22.68317 -7.84254,-33.90004"
       id="path5104"
       sodipodi:nodetypes="ccc" /><path
       style="fill:none;stroke:#baf4fe;stroke-width:0.522999;stroke-dasharray:none;stroke-opacity:1"
       d="m 70.481739,133.98686 c 13.838027,-3.55315 27.926544,-6.81407 38.997511,-13.59546 13.2105,-13.6087 21.63748,-18.30456 37.20863,-20.572084 13.65296,-8.341685 27.91246,-18.503001 40.24973,-22.897621 6.22212,0.03894 11.78178,0.740354 16.09989,2.683314"
       id="path5106"
       sodipodi:nodetypes="ccccc" /><path
       style="fill:none;stroke:#baf4fe;stroke-width:0.522999;stroke-dasharray:none;stroke-opacity:1"
       d="m 21.645407,165.82886 c 12.619137,-4.27105 19.848711,-3.15253 27.906476,-2.8622 2.957379,-1.39555 4.907942,-3.79792 6.439956,-6.61884"
       id="path5108"
       sodipodi:nodetypes="ccc" /></g></svg>
